<svg width="39" height="30" viewBox="0 0 39 30" fill="none" xmlns="http://www.w3.org/2000/svg">
<path fill-rule="evenodd" clip-rule="evenodd" d="M9.20852 20.0226C10.2948 21.9041 13.0105 21.9041 14.0968 20.0225L20.7038 8.57895H9.00408C7.90707 8.57895 7.01778 7.68965 7.01778 6.59265C7.01778 5.49564 7.90707 4.60635 9.00408 4.60635H22.9932C23.947 2.74814 22.6019 0.501955 20.4787 0.501955L2.82659 0.501953C0.654013 0.501953 -0.703843 2.85383 0.382443 4.73534L9.20852 20.0226Z" fill="#424242"/>
<path fill-rule="evenodd" clip-rule="evenodd" d="M29.2875 9.99023C28.2012 8.10872 25.4855 8.10873 24.3992 9.99023L17.7966 21.4262H29.661C30.758 21.4262 31.6473 22.3155 31.6473 23.4125C31.6473 24.5095 30.758 25.3988 29.661 25.3988H15.5067C14.5453 27.2585 15.8912 29.5108 18.0173 29.5108H35.6694C37.842 29.5108 39.1998 27.1589 38.1136 25.2774L29.2875 9.99023Z" fill="#5BC0BE"/>
</svg>
