<svg width="16" height="17" viewBox="0 0 16 17" fill="none" xmlns="http://www.w3.org/2000/svg">
<g clip-path="url(#clip0_1138_57742)">
<path d="M7.9996 2.19488C9.78579 2.20075 11.4954 2.92089 12.7474 4.19482H10.6662C10.298 4.19482 9.99953 4.49328 9.99953 4.86145C9.99953 5.22963 10.298 5.52809 10.6662 5.52809H13.4281C14.1116 5.52771 14.6657 4.97367 14.666 4.29013V1.52821C14.666 1.16004 14.3676 0.861578 13.9994 0.861578C13.6312 0.861578 13.3328 1.16004 13.3328 1.52821V2.91351C10.055 -0.0384881 5.00472 0.225629 2.05272 3.50343C0.897474 4.78621 0.188902 6.40875 0.0331882 8.12801C-0.00106073 8.49718 0.270462 8.8242 0.639638 8.85845C0.659637 8.8603 0.679731 8.86127 0.699855 8.86133C1.03775 8.86564 1.3234 8.61205 1.35918 8.276C1.66673 4.83661 4.54648 2.19941 7.9996 2.19488Z" fill="currentColor"/>
<path d="M15.2999 8.86138C14.962 8.85707 14.6763 9.11066 14.6406 9.44671C14.3224 13.1095 11.0952 15.8209 7.43238 15.5028C5.84759 15.3651 4.36448 14.6645 3.2516 13.5279H5.33288C5.70106 13.5279 5.99952 13.2294 5.99952 12.8613C5.99952 12.4931 5.70106 12.1946 5.33288 12.1946H2.57097C1.88762 12.1942 1.33338 12.7479 1.33301 13.4312C1.33301 13.4317 1.33301 13.4321 1.33301 13.4326V16.1945C1.33301 16.5627 1.63147 16.8611 1.99964 16.8611C2.36782 16.8611 2.66628 16.5627 2.66628 16.1945V14.8092C5.94408 17.7612 10.9943 17.4971 13.9463 14.2193C15.1016 12.9365 15.8102 11.314 15.9659 9.59467C16.0001 9.2255 15.7286 8.89848 15.3594 8.86423C15.3396 8.86241 15.3198 8.86144 15.2999 8.86138Z" fill="currentColor"/>
</g>
<defs>
<clipPath id="clip0_1138_57742">
<rect width="16" height="16" fill="white" transform="translate(0 0.861328)"/>
</clipPath>
</defs>
</svg>
