<svg width="175" height="40" viewBox="0 0 175 40" fill="none" xmlns="http://www.w3.org/2000/svg">
<path fill-rule="evenodd" clip-rule="evenodd" d="M10.2085 25.0226C11.2948 26.9041 14.0105 26.9041 15.0968 25.0225L21.7038 13.5789H10.0041C8.90707 13.5789 8.01778 12.6897 8.01778 11.5926C8.01778 10.4956 8.90707 9.60635 10.0041 9.60635H23.9932C24.947 7.74814 23.6019 5.50195 21.4787 5.50195L3.82659 5.50195C1.65401 5.50195 0.296157 7.85383 1.38244 9.73534L10.2085 25.0226Z" fill="#424242"/>
<path fill-rule="evenodd" clip-rule="evenodd" d="M30.2875 14.9902C29.2012 13.1087 26.4855 13.1087 25.3992 14.9902L18.7966 26.4262H30.661C31.758 26.4262 32.6473 27.3155 32.6473 28.4125C32.6473 29.5095 31.758 30.3988 30.661 30.3988H16.5067C15.5453 32.2585 16.8912 34.5108 19.0173 34.5108H36.6694C38.842 34.5108 40.1998 32.1589 39.1136 30.2774L30.2875 14.9902Z" fill="#5BC0BE"/>
<path d="M48.6423 27V25.1747L55.9008 14.9901H48.6281V12.4545H59.7644V14.2798L52.4988 24.4645H59.7786V27H48.6423ZM67.0531 27.2131C65.931 27.2131 64.9651 26.9858 64.1554 26.5312C63.3505 26.072 62.7302 25.4233 62.2946 24.5852C61.859 23.7424 61.6412 22.7457 61.6412 21.5952C61.6412 20.473 61.859 19.4882 62.2946 18.6406C62.7302 17.7931 63.3434 17.1326 64.1341 16.6591C64.9295 16.1856 65.8623 15.9489 66.9324 15.9489C67.6521 15.9489 68.3221 16.0649 68.9423 16.2969C69.5673 16.5241 70.1118 16.8674 70.5759 17.3267C71.0446 17.786 71.4092 18.3636 71.6696 19.0597C71.93 19.7509 72.0602 20.5606 72.0602 21.4886V22.3196H62.8486V20.4446H69.2122C69.2122 20.009 69.1175 19.6231 68.9281 19.2869C68.7387 18.9508 68.4759 18.688 68.1398 18.4986C67.8083 18.3045 67.4224 18.2074 66.9821 18.2074C66.5228 18.2074 66.1156 18.3139 65.7605 18.527C65.4101 18.7353 65.1355 19.017 64.9366 19.3722C64.7378 19.7225 64.636 20.1132 64.6312 20.544V22.3267C64.6312 22.8665 64.7307 23.3329 64.9295 23.7259C65.1331 24.1188 65.4196 24.4219 65.7889 24.6349C66.1582 24.848 66.5962 24.9545 67.1028 24.9545C67.439 24.9545 67.7468 24.9072 68.0261 24.8125C68.3055 24.7178 68.5446 24.5758 68.7435 24.3864C68.9423 24.197 69.0938 23.965 69.198 23.6903L71.9963 23.875C71.8543 24.5473 71.5631 25.1345 71.1227 25.6364C70.6871 26.1335 70.1237 26.5218 69.4324 26.8011C68.7458 27.0758 67.9527 27.2131 67.0531 27.2131ZM74.0347 27V16.0909H77.0602V27H74.0347ZM75.5545 14.6847C75.1047 14.6847 74.7188 14.5355 74.3969 14.2372C74.0796 13.9342 73.921 13.572 73.921 13.1506C73.921 12.7339 74.0796 12.3764 74.3969 12.0781C74.7188 11.7751 75.1047 11.6236 75.5545 11.6236C76.0044 11.6236 76.3879 11.7751 76.7051 12.0781C77.0271 12.3764 77.1881 12.7339 77.1881 13.1506C77.1881 13.572 77.0271 13.9342 76.7051 14.2372C76.3879 14.5355 76.0044 14.6847 75.5545 14.6847ZM85.2864 16.0909V18.3636H78.7168V16.0909H85.2864ZM80.2083 13.4773H83.2339V23.6477C83.2339 23.9271 83.2765 24.1449 83.3617 24.3011C83.4469 24.4527 83.5653 24.5592 83.7168 24.6207C83.8731 24.6823 84.053 24.7131 84.2566 24.7131C84.3986 24.7131 84.5407 24.7012 84.6827 24.6776C84.8248 24.6491 84.9337 24.6278 85.0094 24.6136L85.4853 26.8651C85.3338 26.9124 85.1207 26.9669 84.8461 27.0284C84.5715 27.0947 84.2377 27.1349 83.8447 27.1491C83.1155 27.1776 82.4763 27.0805 81.9271 26.858C81.3825 26.6354 80.9588 26.2898 80.6558 25.821C80.3527 25.3523 80.2036 24.7604 80.2083 24.0455V13.4773ZM91.8862 31.0909V16.0909H94.8692V17.9233H95.0041C95.1367 17.6297 95.3285 17.3314 95.5794 17.0284C95.8351 16.7206 96.1665 16.465 96.5737 16.2614C96.9857 16.053 97.497 15.9489 98.1078 15.9489C98.9033 15.9489 99.6372 16.1572 100.31 16.5739C100.982 16.9858 101.519 17.6084 101.922 18.4418C102.324 19.2704 102.525 20.3097 102.525 21.5597C102.525 22.7765 102.329 23.804 101.936 24.642C101.548 25.4754 101.017 26.1075 100.345 26.5384C99.6774 26.9645 98.9293 27.1776 98.1007 27.1776C97.5136 27.1776 97.0141 27.0805 96.6021 26.8864C96.1949 26.6922 95.8611 26.4484 95.6007 26.1548C95.3403 25.8565 95.1414 25.5559 95.0041 25.2528H94.9118V31.0909H91.8862ZM94.8479 21.5455C94.8479 22.1941 94.9378 22.7599 95.1178 23.2429C95.2977 23.7259 95.5581 24.1023 95.899 24.3722C96.2399 24.6373 96.6542 24.7699 97.1419 24.7699C97.6343 24.7699 98.051 24.6349 98.3919 24.3651C98.7328 24.0904 98.9909 23.7116 99.166 23.2287C99.346 22.741 99.4359 22.1799 99.4359 21.5455C99.4359 20.9157 99.3483 20.3617 99.1732 19.8835C98.998 19.4053 98.7399 19.0312 98.399 18.7614C98.0581 18.4915 97.6391 18.3565 97.1419 18.3565C96.6495 18.3565 96.2328 18.4867 95.8919 18.7472C95.5557 19.0076 95.2977 19.3769 95.1178 19.8551C94.9378 20.3333 94.8479 20.8968 94.8479 21.5455ZM104.542 27V16.0909H107.476V17.9943H107.589C107.788 17.3172 108.122 16.8059 108.591 16.4602C109.06 16.1098 109.599 15.9347 110.21 15.9347C110.362 15.9347 110.525 15.9441 110.7 15.9631C110.875 15.982 111.029 16.008 111.162 16.0412V18.7259C111.02 18.6832 110.823 18.6454 110.572 18.6122C110.321 18.5791 110.092 18.5625 109.883 18.5625C109.438 18.5625 109.041 18.6596 108.69 18.8537C108.345 19.0431 108.07 19.3082 107.866 19.6491C107.667 19.9901 107.568 20.383 107.568 20.8281V27H104.542ZM117.147 27.2131C116.044 27.2131 115.09 26.9787 114.285 26.5099C113.485 26.0365 112.867 25.3783 112.431 24.5355C111.996 23.688 111.778 22.7055 111.778 21.5881C111.778 20.4612 111.996 19.4763 112.431 18.6335C112.867 17.786 113.485 17.1278 114.285 16.6591C115.09 16.1856 116.044 15.9489 117.147 15.9489C118.25 15.9489 119.202 16.1856 120.002 16.6591C120.807 17.1278 121.428 17.786 121.863 18.6335C122.299 19.4763 122.517 20.4612 122.517 21.5881C122.517 22.7055 122.299 23.688 121.863 24.5355C121.428 25.3783 120.807 26.0365 120.002 26.5099C119.202 26.9787 118.25 27.2131 117.147 27.2131ZM117.161 24.8693C117.663 24.8693 118.082 24.7273 118.419 24.4432C118.755 24.1544 119.008 23.7614 119.178 23.2642C119.354 22.767 119.441 22.2012 119.441 21.5668C119.441 20.9323 119.354 20.3665 119.178 19.8693C119.008 19.3722 118.755 18.9792 118.419 18.6903C118.082 18.4015 117.663 18.2571 117.161 18.2571C116.655 18.2571 116.229 18.4015 115.883 18.6903C115.542 18.9792 115.284 19.3722 115.109 19.8693C114.938 20.3665 114.853 20.9323 114.853 21.5668C114.853 22.2012 114.938 22.767 115.109 23.2642C115.284 23.7614 115.542 24.1544 115.883 24.4432C116.229 24.7273 116.655 24.8693 117.161 24.8693ZM130.286 16.0909V18.3636H123.717V16.0909H130.286ZM125.208 13.4773H128.234V23.6477C128.234 23.9271 128.276 24.1449 128.362 24.3011C128.447 24.4527 128.565 24.5592 128.717 24.6207C128.873 24.6823 129.053 24.7131 129.257 24.7131C129.399 24.7131 129.541 24.7012 129.683 24.6776C129.825 24.6491 129.934 24.6278 130.009 24.6136L130.485 26.8651C130.334 26.9124 130.121 26.9669 129.846 27.0284C129.571 27.0947 129.238 27.1349 128.845 27.1491C128.116 27.1776 127.476 27.0805 126.927 26.858C126.383 26.6354 125.959 26.2898 125.656 25.821C125.353 25.3523 125.204 24.7604 125.208 24.0455V13.4773ZM137.069 27.2131C135.966 27.2131 135.012 26.9787 134.207 26.5099C133.407 26.0365 132.789 25.3783 132.353 24.5355C131.918 23.688 131.7 22.7055 131.7 21.5881C131.7 20.4612 131.918 19.4763 132.353 18.6335C132.789 17.786 133.407 17.1278 134.207 16.6591C135.012 16.1856 135.966 15.9489 137.069 15.9489C138.172 15.9489 139.124 16.1856 139.924 16.6591C140.729 17.1278 141.349 17.786 141.785 18.6335C142.221 19.4763 142.438 20.4612 142.438 21.5881C142.438 22.7055 142.221 23.688 141.785 24.5355C141.349 25.3783 140.729 26.0365 139.924 26.5099C139.124 26.9787 138.172 27.2131 137.069 27.2131ZM137.083 24.8693C137.585 24.8693 138.004 24.7273 138.34 24.4432C138.677 24.1544 138.93 23.7614 139.1 23.2642C139.276 22.767 139.363 22.2012 139.363 21.5668C139.363 20.9323 139.276 20.3665 139.1 19.8693C138.93 19.3722 138.677 18.9792 138.34 18.6903C138.004 18.4015 137.585 18.2571 137.083 18.2571C136.577 18.2571 136.151 18.4015 135.805 18.6903C135.464 18.9792 135.206 19.3722 135.031 19.8693C134.86 20.3665 134.775 20.9323 134.775 21.5668C134.775 22.2012 134.86 22.767 135.031 23.2642C135.206 23.7614 135.464 24.1544 135.805 24.4432C136.151 24.7273 136.577 24.8693 137.083 24.8693ZM149.335 27.2131C148.217 27.2131 147.256 26.9763 146.451 26.5028C145.651 26.0246 145.035 25.3617 144.605 24.5142C144.178 23.6667 143.965 22.6913 143.965 21.5881C143.965 20.4706 144.181 19.4905 144.612 18.6477C145.047 17.8002 145.665 17.1397 146.465 16.6662C147.266 16.188 148.217 15.9489 149.321 15.9489C150.272 15.9489 151.106 16.1217 151.821 16.4673C152.535 16.813 153.101 17.2983 153.518 17.9233C153.935 18.5483 154.164 19.2822 154.207 20.125H151.352C151.271 19.5805 151.058 19.1425 150.713 18.8111C150.372 18.4749 149.924 18.3068 149.37 18.3068C148.901 18.3068 148.492 18.4347 148.142 18.6903C147.796 18.9413 147.526 19.3082 147.332 19.7912C147.138 20.2741 147.041 20.8589 147.041 21.5455C147.041 22.2415 147.135 22.8333 147.325 23.321C147.519 23.8087 147.791 24.1804 148.142 24.4361C148.492 24.6918 148.901 24.8196 149.37 24.8196C149.716 24.8196 150.026 24.7486 150.301 24.6065C150.58 24.4645 150.81 24.2585 150.99 23.9886C151.174 23.714 151.295 23.3849 151.352 23.0014H154.207C154.16 23.8348 153.932 24.5687 153.525 25.2031C153.123 25.8329 152.566 26.3253 151.856 26.6804C151.146 27.0355 150.305 27.2131 149.335 27.2131ZM161.073 27.2131C159.97 27.2131 159.016 26.9787 158.211 26.5099C157.411 26.0365 156.793 25.3783 156.357 24.5355C155.921 23.688 155.704 22.7055 155.704 21.5881C155.704 20.4612 155.921 19.4763 156.357 18.6335C156.793 17.786 157.411 17.1278 158.211 16.6591C159.016 16.1856 159.97 15.9489 161.073 15.9489C162.176 15.9489 163.128 16.1856 163.928 16.6591C164.733 17.1278 165.353 17.786 165.789 18.6335C166.225 19.4763 166.442 20.4612 166.442 21.5881C166.442 22.7055 166.225 23.688 165.789 24.5355C165.353 25.3783 164.733 26.0365 163.928 26.5099C163.128 26.9787 162.176 27.2131 161.073 27.2131ZM161.087 24.8693C161.589 24.8693 162.008 24.7273 162.344 24.4432C162.68 24.1544 162.934 23.7614 163.104 23.2642C163.279 22.767 163.367 22.2012 163.367 21.5668C163.367 20.9323 163.279 20.3665 163.104 19.8693C162.934 19.3722 162.68 18.9792 162.344 18.6903C162.008 18.4015 161.589 18.2571 161.087 18.2571C160.581 18.2571 160.154 18.4015 159.809 18.6903C159.468 18.9792 159.21 19.3722 159.035 19.8693C158.864 20.3665 158.779 20.9323 158.779 21.5668C158.779 22.2012 158.864 22.767 159.035 23.2642C159.21 23.7614 159.468 24.1544 159.809 24.4432C160.154 24.7273 160.581 24.8693 161.087 24.8693ZM171.435 12.4545V27H168.41V12.4545H171.435Z" fill="#5BC0BE"/>
</svg>
