<svg width="24" height="24" viewBox="0 0 24 24" fill="none" xmlns="http://www.w3.org/2000/svg">
<path d="M21.0036 2.61133L13.1997 8.43166L14.6428 4.99774L21.0036 2.61133Z" fill="#E2761B"/>
<path d="M2.98808 2.61133L10.7293 8.48679L9.35671 4.99774L2.98808 2.61133ZM18.1959 16.1028L16.1175 19.3005L20.5646 20.5291L21.843 16.1737L18.1959 16.1028ZM2.16455 16.1737L3.43514 20.5291L7.8822 19.3005L5.80377 16.1028L2.16455 16.1737Z" fill="#E4761B"/>
<path d="M7.63106 10.6998L6.39185 12.5822L10.8075 12.7791L10.6507 8.01412L7.63106 10.6998ZM16.3605 10.6998L13.3016 7.95898L13.1997 12.7791L17.6075 12.5822L16.3605 10.6998ZM7.88204 19.3004L10.533 18.0008L8.24283 16.2051L7.88204 19.3004ZM13.4585 18.0008L16.1173 19.3004L15.7487 16.2051L13.4585 18.0008Z" fill="#E4761B"/>
<path d="M16.1174 19.3005L13.4585 18.001L13.6703 19.7416L13.6468 20.474L16.1174 19.3005ZM7.88208 19.3005L10.3527 20.474L10.337 19.7416L10.5331 18.001L7.88208 19.3005Z" fill="#D7C1B3"/>
<path d="M10.3919 15.055L8.18018 14.4013L9.74096 13.6846L10.3919 15.055ZM13.5998 15.055L14.2508 13.6846L15.8194 14.4013L13.5998 15.055Z" fill="#233447"/>
<path d="M7.88214 19.3002L8.25861 16.1026L5.80371 16.1735L7.88214 19.3002ZM15.741 16.1026L16.1174 19.3002L18.1959 16.1735L15.741 16.1026ZM17.6076 12.582L13.1998 12.7789L13.6076 15.0551L14.2586 13.6847L15.8272 14.4014L17.6076 12.582ZM8.18018 14.4014L9.74881 13.6847L10.3919 15.0551L10.8076 12.7789L6.39195 12.582L8.18018 14.4014Z" fill="#CD6116"/>
<path d="M6.39185 12.582L8.24283 16.205L8.18008 14.4014L6.39185 12.582ZM15.8271 14.4014L15.7487 16.205L17.6075 12.582L15.8271 14.4014ZM10.8075 12.7789L10.3918 15.0551L10.9095 17.7408L11.0271 14.2045L10.8075 12.7789ZM13.1997 12.7789L12.9879 14.1966L13.082 17.7408L13.6075 15.0551L13.1997 12.7789Z" fill="#E4751F"/>
<path d="M13.6076 15.0551L13.0821 17.7408L13.4586 18.0007L15.7488 16.205L15.8272 14.4014L13.6076 15.0551ZM8.18018 14.4014L8.24292 16.205L10.5331 18.0007L10.9096 17.7408L10.3919 15.0551L8.18018 14.4014Z" fill="#F6851B"/>
<path d="M13.6468 20.4743L13.6703 19.7418L13.4742 19.5686H10.5174L10.337 19.7418L10.3527 20.4743L7.88208 19.3008L8.74483 20.0096L10.4938 21.2304H13.4978L15.2546 20.0096L16.1174 19.3008L13.6468 20.4743Z" fill="#C0AD9E"/>
<path d="M13.4585 18.0011L13.082 17.7412H10.9095L10.533 18.0011L10.3369 19.7417L10.5173 19.5684H13.4742L13.6702 19.7417L13.4585 18.0011Z" fill="#161616"/>
<path d="M21.3331 8.8097L21.9998 5.59632L21.0037 2.61133L13.4586 8.23476L16.3605 10.6999L20.4625 11.905L21.3723 10.8417L20.9801 10.5582L21.6076 9.98322L21.1213 9.60518L21.7488 9.12474L21.3331 8.8097ZM1.99976 5.59632L2.66642 8.8097L2.24289 9.12474L2.87034 9.60518L2.39191 9.98322L3.01936 10.5582L2.62721 10.8417L3.52917 11.905L7.63113 10.6999L10.5331 8.23476L2.98799 2.61133L1.99976 5.59632Z" fill="#763D16"/>
<path d="M20.4626 11.9053L16.3606 10.7002L17.6077 12.5826L15.7489 16.2055L18.1959 16.174H21.843L20.4626 11.9053ZM7.63122 10.7002L3.52926 11.9053L2.16455 16.174H5.80377L8.24298 16.2055L6.392 12.5826L7.63122 10.7002ZM13.1998 12.7795L13.4587 8.23506L14.6508 4.99805H9.35671L10.5332 8.23506L10.8077 12.7795L10.9018 14.2129L10.9096 17.7413H13.0822L13.0979 14.2129L13.1998 12.7795Z" fill="#F6851B"/>
</svg>
