<svg width="24" height="24" viewBox="0 0 24 24" fill="none" xmlns="http://www.w3.org/2000/svg">
<rect width="24" height="24" rx="4" fill="#3B99FC"/>
<path d="M7.1912 8.89228C9.84705 6.23643 14.153 6.23643 16.8089 8.89228L17.1285 9.21191C17.2613 9.34471 17.2613 9.56 17.1285 9.6928L16.0351 10.7862C15.9687 10.8526 15.8611 10.8526 15.7947 10.7862L15.3548 10.3464C13.502 8.49356 10.4981 8.49356 8.64528 10.3464L8.17423 10.8174C8.10783 10.8838 8.00018 10.8838 7.93378 10.8174L6.84037 9.72399C6.70758 9.5912 6.70758 9.3759 6.84037 9.24311L7.1912 8.89228ZM19.0702 11.1536L20.0433 12.1267C20.1761 12.2595 20.1761 12.4748 20.0433 12.6076L15.6554 16.9956C15.5226 17.1284 15.3073 17.1284 15.1745 16.9956C15.1745 16.9956 15.1745 16.9956 15.1745 16.9956L12.0602 13.8813C12.027 13.8481 11.9732 13.8481 11.94 13.8813C11.94 13.8813 11.94 13.8813 11.94 13.8813L8.82572 16.9956C8.69293 17.1284 8.47763 17.1284 8.34484 16.9956C8.34484 16.9956 8.34484 16.9956 8.34484 16.9956L3.95677 12.6075C3.82398 12.4747 3.82398 12.2594 3.95677 12.1266L4.92991 11.1535C5.0627 11.0207 5.278 11.0207 5.4108 11.1535L8.52514 14.2679C8.55833 14.3011 8.61216 14.3011 8.64536 14.2679C8.64536 14.2679 8.64536 14.2679 8.64536 14.2679L11.7595 11.1535C11.8923 11.0207 12.1076 11.0207 12.2404 11.1535C12.2404 11.1535 12.2404 11.1535 12.2404 11.1535L15.3548 14.2679C15.388 14.3011 15.4418 14.3011 15.475 14.2679L18.5893 11.1536C18.7221 11.0208 18.9374 11.0208 19.0702 11.1536Z" fill="white"/>
</svg>
